<?xml version="1.0" encoding="UTF-8" standalone="no"?>
<!-- Created with Inkscape (http://www.inkscape.org/) -->

<svg
   xmlns:dc="http://purl.org/dc/elements/1.1/"
   xmlns:cc="http://creativecommons.org/ns#"
   xmlns:rdf="http://www.w3.org/1999/02/22-rdf-syntax-ns#"
   xmlns:svg="http://www.w3.org/2000/svg"
   xmlns="http://www.w3.org/2000/svg"
   xmlns:sodipodi="http://sodipodi.sourceforge.net/DTD/sodipodi-0.dtd"
   xmlns:inkscape="http://www.inkscape.org/namespaces/inkscape"
   width="210mm"
   height="297mm"
   viewBox="0 0 210 297"
   version="1.1"
   id="svg8"
   inkscape:version="0.92.3 (2405546, 2018-03-11)"
   sodipodi:docname="MainPlayerFish.svg"
   inkscape:export-filename="E:\KULIAH\Semester 3\PBO F\Final Project\Asset\Player Fish\PlayerFish1.png"
   inkscape:export-xdpi="96"
   inkscape:export-ydpi="96">
  <defs
     id="defs2">
    <inkscape:path-effect
       effect="bspline"
       id="path-effect980"
       is_visible="true"
       weight="33.333333"
       steps="2"
       helper_size="0"
       apply_no_weight="true"
       apply_with_weight="true"
       only_selected="false" />
    <inkscape:path-effect
       effect="simplify"
       id="path-effect978"
       is_visible="true"
       steps="1"
       threshold="0.00317343"
       smooth_angles="360"
       helper_size="0"
       simplify_individual_paths="false"
       simplify_just_coalesce="false"
       simplifyindividualpaths="false"
       simplifyJustCoalesce="false" />
    <inkscape:path-effect
       effect="bspline"
       id="path-effect968"
       is_visible="true"
       weight="33.333333"
       steps="2"
       helper_size="0"
       apply_no_weight="true"
       apply_with_weight="true"
       only_selected="false" />
    <inkscape:path-effect
       effect="simplify"
       id="path-effect966"
       is_visible="true"
       steps="1"
       threshold="0.00317343"
       smooth_angles="360"
       helper_size="0"
       simplify_individual_paths="false"
       simplify_just_coalesce="false"
       simplifyindividualpaths="false"
       simplifyJustCoalesce="false" />
    <inkscape:path-effect
       effect="bspline"
       id="path-effect962"
       is_visible="true"
       weight="33.333333"
       steps="2"
       helper_size="0"
       apply_no_weight="true"
       apply_with_weight="true"
       only_selected="false" />
    <inkscape:path-effect
       effect="simplify"
       id="path-effect960"
       is_visible="true"
       steps="1"
       threshold="0.00317343"
       smooth_angles="360"
       helper_size="0"
       simplify_individual_paths="false"
       simplify_just_coalesce="false"
       simplifyindividualpaths="false"
       simplifyJustCoalesce="false" />
    <inkscape:path-effect
       effect="bspline"
       id="path-effect940"
       is_visible="true"
       weight="33.333333"
       steps="2"
       helper_size="0"
       apply_no_weight="true"
       apply_with_weight="true"
       only_selected="false" />
    <inkscape:path-effect
       effect="simplify"
       id="path-effect938"
       is_visible="true"
       steps="1"
       threshold="0.00317343"
       smooth_angles="360"
       helper_size="0"
       simplify_individual_paths="false"
       simplify_just_coalesce="false"
       simplifyindividualpaths="false"
       simplifyJustCoalesce="false" />
    <inkscape:path-effect
       effect="simplify"
       id="path-effect912"
       is_visible="true"
       steps="1"
       threshold="0.00853342"
       smooth_angles="360"
       helper_size="0"
       simplify_individual_paths="false"
       simplify_just_coalesce="false"
       simplifyindividualpaths="false"
       simplifyJustCoalesce="false" />
  </defs>
  <sodipodi:namedview
     id="base"
     pagecolor="#ffffff"
     bordercolor="#666666"
     borderopacity="1.0"
     inkscape:pageopacity="0.0"
     inkscape:pageshadow="2"
     inkscape:zoom="0.25"
     inkscape:cx="949.49768"
     inkscape:cy="-10.652928"
     inkscape:document-units="mm"
     inkscape:current-layer="layer1"
     showgrid="false"
     inkscape:window-width="1920"
     inkscape:window-height="1001"
     inkscape:window-x="-9"
     inkscape:window-y="-9"
     inkscape:window-maximized="1"
     inkscape:pagecheckerboard="false" />
  <metadata
     id="metadata5">
    <rdf:RDF>
      <cc:Work
         rdf:about="">
        <dc:format>image/svg+xml</dc:format>
        <dc:type
           rdf:resource="http://purl.org/dc/dcmitype/StillImage" />
        <dc:title />
      </cc:Work>
    </rdf:RDF>
  </metadata>
  <g
     inkscape:label="Layer 1"
     inkscape:groupmode="layer"
     id="layer1">
    <ellipse
       style="fill:#abc837;fill-opacity:1;stroke:none;stroke-width:14.862607;stroke-linecap:round;stroke-linejoin:round;stroke-miterlimit:50;stroke-dasharray:none;stroke-dashoffset:0;stroke-opacity:1;paint-order:normal"
       id="path815"
       cx="-82.342262"
       cy="41.435265"
       rx="71.501793"
       ry="35.088844"
       inkscape:export-xdpi="96"
       inkscape:export-ydpi="96"
       transform="scale(-1,1)" />
    <path
       style="fill:#abc837;fill-opacity:1;stroke:none;stroke-width:14.862607;stroke-linecap:round;stroke-linejoin:round;stroke-miterlimit:50;stroke-dasharray:none;stroke-dashoffset:0;stroke-opacity:1;paint-order:normal"
       d="m 190.25708,15.615025 a 45.681701,27.806253 0 0 1 5.89603,0.266238 41.047327,43.695538 0 0 0 -9.20632,27.539593 41.047327,43.695538 0 0 0 9.21913,27.544708 45.681701,27.806253 0 0 1 -5.90884,0.261135 45.681701,27.806253 0 0 1 -45.68085,-27.805843 45.681701,27.806253 0 0 1 45.68085,-27.805841 z"
       id="path817"
       inkscape:connector-curvature="0"
       inkscape:export-xdpi="96"
       inkscape:export-ydpi="96" />
    <ellipse
       style="fill:#241f1c;fill-opacity:1;stroke:none;stroke-width:14.862607;stroke-linecap:round;stroke-linejoin:round;stroke-miterlimit:50;stroke-dasharray:none;stroke-dashoffset:0;stroke-opacity:1;paint-order:normal"
       id="path834"
       cx="-52.053295"
       cy="22.235701"
       rx="3.4757814"
       ry="3.641295"
       inkscape:export-xdpi="96"
       inkscape:export-ydpi="96"
       transform="scale(-1,1)" />
    <path
       style="fill:none;stroke:#000000;stroke-width:1.31079936px;stroke-linecap:butt;stroke-linejoin:miter;stroke-opacity:1"
       d="m 13.157668,49.379886 c 1.50065,1.12549 0.77238,0.993084 1.98617,0.993084 0.11043,0 0.2323,-0.04904 0.33098,0 0.13954,0.06975 0.19143,0.261235 0.33104,0.33104 0.21154,0.10577 1.05767,-0.08872 1.32411,0 0.23409,0.07797 0.45679,0.194155 0.66206,0.33104 0.12983,0.0865 0.183,0.281696 0.33104,0.331039 0.20936,0.06975 0.44136,0 0.66204,0 0.44137,0 0.88275,0 1.32413,0 0.11043,0 0.22396,-0.02675 0.33104,0 0.33098,0.110378 0.66204,0.220711 0.99306,0.33104 0,0.110378 -0.078,0.253011 0,0.33104 0.0707,0.07079 1.14161,-0.06083 1.32411,0 0.23407,0.07798 0.44136,0.220661 0.66206,0.331041 0.33104,0 0.67902,-0.104577 0.99306,0 0.10484,0.03468 -0.078,0.253011 0,0.331038 0.078,0.07798 0.22636,-0.03468 0.33104,0 0.2341,0.07798 0.42801,0.253011 0.66207,0.331041 0.10465,0.03468 0.22066,0 0.33104,0 0.59981,0 1.08398,-0.04979 1.65512,0.33104 0.0918,0.06124 -0.078,0.253011 0,0.331038 0.0112,0.01045 0.9128,0 0.99309,0 2.75855,0 5.51712,0 8.27565,0"
       id="path844"
       inkscape:connector-curvature="0"
       inkscape:export-xdpi="96"
       inkscape:export-ydpi="96" />
    <path
       style="fill:#abc837;fill-opacity:1;stroke:none;stroke-width:14.862607;stroke-linecap:round;stroke-linejoin:round;stroke-miterlimit:50;stroke-dasharray:none;stroke-dashoffset:0;stroke-opacity:1;paint-order:normal"
       d="m 81.985768,88.50813 a 71.501794,35.088844 0 0 1 71.502582,35.08949 71.501794,35.088844 0 0 1 -71.502582,35.08947 71.501794,35.088844 0 0 1 -61.37203,-17.16583 l 20.48893,-5.59394 -30.17911,-8.56115 a 71.501794,35.088844 0 0 1 -0.44035,-3.76855 71.501794,35.088844 0 0 1 71.50256,-35.08949 z"
       id="path815-9"
       inkscape:export-xdpi="96"
       inkscape:export-ydpi="96"
       inkscape:connector-curvature="0" />
    <path
       style="fill:#abc837;fill-opacity:1;stroke:none;stroke-width:14.862607;stroke-linecap:round;stroke-linejoin:round;stroke-miterlimit:50;stroke-dasharray:none;stroke-dashoffset:0;stroke-opacity:1;paint-order:normal"
       d="m 189.90092,97.7773 a 45.681701,27.806253 0 0 1 5.89602,0.26624 41.047329,43.695539 0 0 0 -9.20631,27.53959 41.047329,43.695539 0 0 0 9.21911,27.54471 45.681701,27.806253 0 0 1 -5.90882,0.26114 45.681701,27.806253 0 0 1 -45.68086,-27.80585 45.681701,27.806253 0 0 1 45.68086,-27.80584 z"
       id="path817-3"
       inkscape:connector-curvature="0"
       inkscape:export-xdpi="96"
       inkscape:export-ydpi="96" />
    <ellipse
       style="fill:#241f1c;fill-opacity:1;stroke:none;stroke-width:14.862607;stroke-linecap:round;stroke-linejoin:round;stroke-miterlimit:50;stroke-dasharray:none;stroke-dashoffset:0;stroke-opacity:1;paint-order:normal"
       id="path834-7"
       cx="-51.69714"
       cy="104.39796"
       rx="3.4757814"
       ry="3.641295"
       inkscape:export-xdpi="96"
       inkscape:export-ydpi="96"
       transform="scale(-1,1)" />
    <path
       style="fill:none;stroke:#000000;stroke-width:1.31079936px;stroke-linecap:butt;stroke-linejoin:miter;stroke-opacity:1"
       d="m 10.923538,127.36616 c 0.53046,0.0866 0.32599,0.0804 0.60898,0.0804 0.0778,0 0.16453,-0.0347 0.23383,0 0.0347,0.0173 -0.0297,0.0894 0,0.11707 0.006,0.005 0.56864,-0.004 0.58519,0 0.12088,0.0243 0.23137,0.0872 0.35126,0.11708 0.0395,0.009 0.0778,0 0.11696,0 0.0778,0 0.15595,0 0.23383,0 0.1952,0 0.3899,0 0.58513,0 0.13133,0 0.73562,-0.0277 0.81928,0 0.0828,0.0277 0.14961,0.0958 0.23434,0.11707 0.15166,0.0376 0.32004,-0.049 0.46817,0 0.0524,0.0173 0.0679,0.0924 0.11696,0.11708 0.0688,0.0347 0.27051,-0.0268 0.35125,0 0.0778,0.0391 0.15613,0.078 0.23385,0.11707 0,0.0391 -0.0297,0.0894 0,0.11707 0.0297,0.0277 0.0802,-0.0119 0.11696,0 0.0828,0.0277 0.1511,0.0894 0.23385,0.11708 0.0739,0.0248 0.1789,-0.0552 0.23383,0 0.0297,0.0277 -0.0297,0.0894 0,0.11707 0.0297,0.0277 0.0823,-0.0173 0.11697,0 0.0496,0.0248 0.0679,0.0924 0.11696,0.11708 0.0936,0.0466 0.25763,-0.0466 0.35126,0 0.0496,0.0248 0.0679,0.0924 0.11696,0.11707 0.0347,0.0173 0.0823,-0.0173 0.11697,0 0.0496,0.0248 0.0679,0.0924 0.11696,0.11708 0.0347,0.0173 0.0798,-0.0119 0.11696,0 0.0828,0.0277 0.1511,0.0894 0.23383,0.11707 0.0347,0.0119 0.0823,-0.0173 0.11697,0 0.0494,0.0248 0.0679,0.0924 0.11696,0.11708 0.0698,0.0347 0.16453,-0.0347 0.23434,0 0.0987,0.0495 0.13524,0.18473 0.23383,0.23408 0.0347,0.0173 0.0823,-0.0173 0.11696,0 0.0496,0.0248 0.0713,0.0864 0.11696,0.11708 0.0728,0.0486 0.16155,0.0687 0.23384,0.11707 0.0446,0.0307 0.0679,0.0924 0.11696,0.11708 0.0698,0.0347 0.16453,-0.0347 0.23383,0 0.48699,0.24355 -0.12536,-0.008 0.11696,0.23408 0.0297,0.0277 0.0802,-0.0119 0.11697,0 0.0828,0.0277 0.1511,0.0894 0.23385,0.11708 0.0347,0.0119 0.0823,-0.0173 0.11696,0 0.0496,0.0248 0.0673,0.0924 0.11696,0.11707 0.0347,0.0173 0.0823,-0.0173 0.11697,0 0.53558,0.26783 -0.49668,-0.0486 0.35124,0.23409 0.10017,0.0332 0.36512,-0.0258 0.46817,0 0.21204,-0.0705 0.21749,0.1896 0.35126,0.23409 0.14513,0.0486 0.43151,-0.0387 0.58519,0 0.0847,0.0213 0.1511,0.0894 0.23383,0.11707 0.0446,0.0153 0.33292,-0.0183 0.35126,0 0.0297,0.0277 -0.0297,0.0894 0,0.11708 0.0248,0.0252 0.40378,-0.0213 0.46817,0 0.0828,0.0277 0.1511,0.0894 0.23383,0.11707 0.10353,0.0347 0.50856,-0.0382 0.58521,0 0.0987,0.0496 0.12927,0.19916 0.23383,0.23409 0.0535,0.0179 0.51984,0 0.58519,0 0.38989,0 0.78024,0 1.17034,0 0.0955,0 0.50933,-0.0253 0.58518,0 0.84777,0.28258 -0.1843,-0.0337 0.35125,0.23408 0.0347,0.0174 0.0793,-0.009 0.11696,0 0.51747,0.12935 0.18677,0.11708 0.46817,0.11708 0.0526,0 0.31559,-0.0179 0.35126,0 0.0496,0.0248 0.0679,0.0924 0.11696,0.11707 0.07,0.0347 0.16006,-0.0248 0.23385,0 0.0828,0.0277 0.15614,0.078 0.23384,0.11708 0.0778,0.0391 0.16154,0.0687 0.23383,0.11707 0.0446,0.0307 0.0679,0.0924 0.11696,0.11708 0.0347,0.0173 0.0778,0 0.11696,0 0.0778,0 0.16006,-0.0248 0.23384,0 0.0524,0.0173 0.0778,0.078 0.11696,0.11707 0.0688,0.0688 0.41416,0.44102 0.46817,0.46812 0.0698,0.0347 0.16453,-0.0347 0.23383,0 0.14028,0.0703 0.21055,0.28091 0.35126,0.35111 0.0347,0.0174 0.0823,-0.0173 0.11696,0 0.0496,0.0248 0.0778,0.078 0.11697,0.11707 0.0921,0.0919 0.51059,0.5479 0.58515,0.58517 0.0698,0.0347 0.16453,-0.0347 0.23383,0 0.0985,0.049 0.13524,0.18475 0.23383,0.23408 0.0347,0.0173 0.0778,0 0.11697,0 0.0395,0.0391 0.0679,0.0924 0.11696,0.11708 0.0698,0.0347 0.16453,-0.0347 0.23383,0 0.0496,0.0248 0.0673,0.0924 0.11696,0.11707 0.1248,0.0624 0.1095,-0.0624 0.23385,0 0.0987,0.049 0.13525,0.18474 0.23434,0.23409 0.0347,0.0173 0.0778,0 0.11696,0 0.0778,0 0.15614,0 0.23385,0 0.19519,0 0.3899,0 0.58514,0 0.0778,0 0.15613,0 0.23383,0 0.0397,0 0.0802,-0.0119 0.11696,0 0.0778,0.0391 0.15614,0.078 0.23383,0.11708 0,0.0391 -0.0297,0.0894 0,0.11707 0.0149,0.0144 0.30866,-0.0104 0.35127,0 0.11994,0.0297 0.23036,0.0928 0.35126,0.11707 0.1302,0.0263 0.4325,0 0.58513,0 0.27297,0 0.5462,0 0.81928,0 0.0526,0 0.31558,-0.0179 0.35124,0 0.0496,0.0248 0.0679,0.0924 0.11697,0.11708 0.0936,0.0466 0.25761,-0.0466 0.35124,0 0.0496,0.0248 0.0679,0.0924 0.11696,0.11707 0.0688,0.0347 0.27051,-0.0267 0.35126,0 0.0828,0.0277 0.15166,0.0894 0.23384,0.11708 0.0739,0.0248 0.16453,-0.0347 0.23383,0 0.0496,0.0248 0.0679,0.0924 0.11696,0.11707 0.0347,0.0173 0.0823,-0.0173 0.11696,0 0.0987,0.049 0.13525,0.1847 0.23384,0.23409 0.0936,0.0466 0.25761,-0.0466 0.35124,0 0.24971,0.1248 -0.0149,0.10933 0.23385,0.23409 0.0688,0.0347 0.27049,-0.0267 0.35124,0 0.0778,0.0391 0.15614,0.078 0.23434,0.11707 0,0.0391 -0.0297,0.0894 0,0.11708 0.0778,0.078 0.15614,-0.078 0.23385,0 0.0297,0.0277 -0.0297,0.0894 0,0.11707 0.0584,0.0585 0.29278,-0.0585 0.35124,0 0.0297,0.0277 -0.0297,0.0894 0,0.11708 0.0248,0.0238 0.30468,-0.0233 0.35126,0 0.0494,0.0248 0.0679,0.0924 0.11697,0.11707 0.0347,0.0173 0.11696,0.0391 0.11696,0 0,-0.0391 -0.15614,0 -0.11696,0 0.40278,0 0.26357,0.0505 0.66238,-0.17979 -0.50826,0.19401 -0.85837,0.17826 -1.3572,0.17826 -0.0778,0 -0.15856,-0.0188 -0.23383,0 -0.0847,0.0213 -0.14961,0.0959 -0.23385,0.11702 -0.15166,0.0376 -0.3151,-0.0307 -0.46817,0 -0.24078,0.048 -0.37703,0.13006 -0.58513,0.23409 -0.0778,0.0391 -0.15111,0.0895 -0.23386,0.11701 -0.0347,0.0123 -0.0778,0 -0.11696,0 -0.11696,0 -0.23532,-0.0164 -0.35126,0 -0.51083,0.073 -0.37454,0.12292 -0.81928,0.23409 -0.0396,0.009 -0.0787,-0.007 -0.11696,0 -0.15763,0.0317 -0.31064,0.0855 -0.46819,0.11702 -0.11491,0.0228 -0.23631,-0.0228 -0.35124,0 -0.60883,0.12178 -0.11697,0.078 -0.58515,0.23409 -0.12443,0.0416 -0.34382,-0.0416 -0.46817,0 -0.0778,0.0391 -0.15614,0.078 -0.23384,0.11701 0,0.0391 0.0297,0.0895 0,0.11702 -0.0297,0.0277 -0.0823,-0.0173 -0.11696,0 -0.0496,0.0248 -0.0679,0.0923 -0.11696,0.11702 -0.0347,0.0173 -0.0778,0 -0.11696,0 -0.0397,0.0391 -0.0713,0.0864 -0.11697,0.11702 -0.0724,0.0486 -0.1511,0.0895 -0.23383,0.11702 -0.0739,0.0248 -0.17889,-0.0552 -0.23383,0 -0.24227,0.24216 0.37006,-0.009 -0.11696,0.23409 -0.07,0.0347 -0.16006,-0.0248 -0.23384,0 -0.0828,0.0277 -0.15166,0.0894 -0.23385,0.11701 -0.0347,0.0123 -0.0802,-0.0123 -0.11696,0 -0.0828,0.0277 -0.1511,0.0895 -0.23385,0.11702 -0.0347,0.0123 -0.0823,-0.0173 -0.11697,0 -0.0987,0.0496 -0.13524,0.18476 -0.23385,0.23409 -0.0347,0.0179 -0.29824,0 -0.35124,0 -0.26456,0 0.0524,-0.0173 -0.35126,0.11702 -0.10409,0.0347 -0.50854,-0.0382 -0.58519,0 -0.0496,0.0248 -0.0679,0.0923 -0.11696,0.11702 -0.0347,0.0173 -0.0802,-0.0123 -0.11696,0 -0.72644,0.24216 0.3889,-0.009 -0.58519,0.23408 -0.0784,0.0198 -0.55954,-0.0258 -0.58515,0 -0.0297,0.0277 0.0297,0.0895 0,0.11702 -0.0248,0.0253 -0.40377,-0.0213 -0.46817,0 -0.0778,0.0391 -0.15614,0.078 -0.23383,0.11702 0,0.0391 0.0297,0.0894 0,0.11702 -0.0248,0.0253 -0.40378,-0.0213 -0.46819,0 -0.0778,0.0391 -0.15614,0.078 -0.23383,0.11702 0,0.0391 0.0347,0.0996 0,0.11702 -0.23383,0.11702 -0.17535,-0.0585 -0.35124,0 -0.0828,0.0277 -0.14961,0.0959 -0.23386,0.11702 -0.0966,0.0243 -0.64275,-0.0297 -0.7022,0 -0.0496,0.0248 -0.0649,0.0996 -0.11697,0.11701 -0.0739,0.0248 -0.15595,0 -0.23383,0 -0.0395,0 -0.0823,-0.0173 -0.11696,0 -0.0494,0.0248 -0.0679,0.0923 -0.11696,0.11702 -0.0521,0.0263 -0.41467,-0.0179 -0.46817,0 -0.0524,0.0173 -0.0709,0.0864 -0.11696,0.11702 -0.0724,0.0486 -0.1511,0.0895 -0.23384,0.11702 -0.0942,0.0312 -0.39336,-0.0372 -0.46818,0 -0.0985,0.0496 -0.13525,0.18474 -0.23384,0.23409 -0.0634,0.0317 -0.43597,-0.0322 -0.46817,0 -0.0297,0.0277 0.0297,0.0894 0,0.11702 -0.0297,0.0277 -0.0778,0 -0.11696,0 -0.0446,0 -0.53519,-0.0248 -0.58519,0 -0.0496,0.0248 -0.0679,0.0923 -0.11696,0.11702 -0.0347,0.0173 -0.0823,-0.0173 -0.11696,0 -0.53566,0.26782 0.4966,-0.0486 -0.35126,0.23408 -0.0802,0.0267 -0.28189,-0.0347 -0.35125,0 -0.0496,0.0248 -0.0679,0.0923 -0.11696,0.11702 -0.0698,0.0347 -0.16005,-0.0248 -0.23383,0 -0.16547,0.0552 -0.30271,0.1789 -0.46817,0.23409 -0.0347,0.0123 -0.0798,-0.0123 -0.11696,0 -0.0826,0.0277 -0.1511,0.0895 -0.23383,0.11702 -0.0347,0.0123 -0.11697,-0.0391 -0.11697,0 0,0.0391 0.14457,-0.0277 0.11697,0 -0.0619,0.0617 -0.15614,0.078 -0.23386,0.11701 -0.35322,0.17662 -0.14718,0.11038 -0.6327,0.1476"
       id="path889"
       inkscape:connector-curvature="0"
       inkscape:export-xdpi="96"
       inkscape:export-ydpi="96" />
    <ellipse
       inkscape:export-ydpi="96"
       inkscape:export-xdpi="96"
       ry="19.117807"
       rx="38.957039"
       cy="190.03897"
       cx="112.31051"
       id="ellipse897"
       style="fill:#ffcc00;fill-opacity:1;stroke:none;stroke-width:8.09774399;stroke-linecap:round;stroke-linejoin:round;stroke-miterlimit:50;stroke-dasharray:none;stroke-dashoffset:0;stroke-opacity:1;paint-order:normal"
       inkscape:export-filename="E:\KULIAH\Semester 3\PBO F\Final Project\Asset\SmallFish.png" />
    <path
       inkscape:export-ydpi="96"
       inkscape:export-xdpi="96"
       inkscape:connector-curvature="0"
       id="path899"
       d="m 53.514195,175.9711 a 24.88922,15.14996 0 0 0 -3.2124,0.1449 22.364228,23.807079 0 0 1 5.01596,15.00465 22.364228,23.807079 0 0 1 -5.02294,15.00745 24.88922,15.14996 0 0 0 3.21938,0.14208 24.88922,15.14996 0 0 0 24.88875,-15.14971 24.88922,15.14996 0 0 0 -24.88875,-15.14971 z"
       style="fill:#ffcc00;fill-opacity:1;stroke:none;stroke-width:8.09774399;stroke-linecap:round;stroke-linejoin:round;stroke-miterlimit:50;stroke-dasharray:none;stroke-dashoffset:0;stroke-opacity:1;paint-order:normal"
       inkscape:export-filename="E:\KULIAH\Semester 3\PBO F\Final Project\Asset\SmallFish.png" />
    <ellipse
       inkscape:export-ydpi="96"
       inkscape:export-xdpi="96"
       ry="1.9839234"
       rx="1.8937451"
       cy="179.57829"
       cx="128.81316"
       id="ellipse901"
       style="fill:#241f1c;fill-opacity:1;stroke:none;stroke-width:8.09774399;stroke-linecap:round;stroke-linejoin:round;stroke-miterlimit:50;stroke-dasharray:none;stroke-dashoffset:0;stroke-opacity:1;paint-order:normal"
       inkscape:export-filename="E:\KULIAH\Semester 3\PBO F\Final Project\Asset\SmallFish.png" />
    <path
       style="fill:#ff0000;fill-opacity:1;stroke:none;stroke-width:19.65392685;stroke-linecap:round;stroke-linejoin:round;stroke-miterlimit:50;stroke-dasharray:none;stroke-dashoffset:0;stroke-opacity:1;paint-order:normal"
       d="m 395.99252,122.87105 a 94.552139,46.400592 0 0 1 94.55184,46.40027 94.552139,46.400592 0 0 1 -0.44338,4.34805 l -49.66931,7.64398 23.89362,19.9993 a 94.552139,46.400592 0 0 1 -68.33277,14.40945 94.552139,46.400592 0 0 1 -94.55237,-46.40078 94.552139,46.400592 0 0 1 94.55237,-46.40027 z"
       id="path815-2"
       inkscape:export-xdpi="96"
       inkscape:export-ydpi="96"
       inkscape:connector-curvature="0" />
    <path
       style="fill:#ff0000;fill-opacity:1;stroke:none;stroke-width:19.65392876;stroke-linecap:round;stroke-linejoin:round;stroke-miterlimit:50;stroke-dasharray:none;stroke-dashoffset:0;stroke-opacity:1;paint-order:normal"
       d="m 253.28863,135.12758 a 60.408308,36.770273 0 0 0 -7.79676,0.35205 54.279932,57.781856 0 0 1 12.17421,36.41765 54.279932,57.781856 0 0 1 -12.19114,36.42442 60.408308,36.770273 0 0 0 7.81369,0.34532 60.408308,36.770273 0 0 0 60.40718,-36.76974 60.408308,36.770273 0 0 0 -60.40718,-36.76971 z"
       id="path817-9"
       inkscape:connector-curvature="0"
       inkscape:export-xdpi="96"
       inkscape:export-ydpi="96" />
    <ellipse
       style="fill:#241f1c;fill-opacity:1;stroke:none;stroke-width:19.65392876;stroke-linecap:round;stroke-linejoin:round;stroke-miterlimit:50;stroke-dasharray:none;stroke-dashoffset:0;stroke-opacity:1;paint-order:normal"
       id="path834-3"
       cx="436.04575"
       cy="143.88257"
       rx="4.5962844"
       ry="4.8151546"
       inkscape:export-xdpi="96"
       inkscape:export-ydpi="96" />
    <path
       style="fill:none;stroke:#000000;stroke-width:1.32237422;stroke-linecap:butt;stroke-linejoin:miter;stroke-miterlimit:4;stroke-dasharray:none;stroke-opacity:1"
       d="m 451.89303,142.94326 c -0.37903,-0.933 -0.76168,-1.87491 -1.16879,-2.492 -0.40711,-0.61708 -0.85541,-0.93385 -1.45833,-1.23012 -0.60293,-0.29627 -1.35944,-0.5695 -3.46779,-1.29028 -2.10835,-0.72077 -5.57474,-1.89124 -8.19445,-2.73369 -2.61971,-0.84244 -4.58652,-1.4134 -5.76156,-1.99436 -1.17503,-0.58096 -1.97332,-1.31785 -2.52176,-1.99904 -0.54844,-0.68119 -0.92748,-1.38094 -1.30651,-2.0807"
       id="path976"
       inkscape:connector-curvature="0"
       inkscape:path-effect="#path-effect978;#path-effect980"
       inkscape:original-d="m 451.89303,142.94326 c -0.38252,-0.93652 -0.76158,-1.86951 -1.13711,-2.79903 -0.1493,-0.17843 -0.29505,-0.35337 -0.43735,-0.52481 -0.44084,-0.2076 -0.87819,-0.41169 -1.31204,-0.61228 -4.05625,-1.37387 -8.10902,-2.74423 -12.15827,-4.11109 -1.81121,-0.52832 -3.61889,-1.05313 -5.42312,-1.57444 -0.76158,-0.70325 -1.51961,-1.40302 -2.2742,-2.09928 -0.38253,-0.70325 -0.76158,-1.403 -1.1371,-2.09926"
       inkscape:export-xdpi="96"
       inkscape:export-ydpi="96" />
    <path
       style="fill:#241c1c;fill-opacity:0.98543689;stroke:#000000;stroke-width:0.26458332px;stroke-linecap:butt;stroke-linejoin:miter;stroke-opacity:1"
       d="m 489.77359,173.66614 -2.635,4.8567 -4.8599,-3.56073 -1.50205,4.30118 -4.48583,-3.46671 -1.78268,4.30083 -3.92456,-3.46601 -2.62481,4.48688 -3.17597,-3.65217 -2.25041,4.30025 -3.64405,-3.37213 -1.5018,4.11409 -3.92493,-3.18538 z"
       id="path985"
       inkscape:connector-curvature="0"
       inkscape:export-xdpi="96"
       inkscape:export-ydpi="96" />
    <path
       style="fill:#241c1c;fill-opacity:0.98543689;stroke:#000000;stroke-width:0.26458332px;stroke-linecap:butt;stroke-linejoin:miter;stroke-opacity:1"
       d="m 464.23175,201.02879 1.67828,-4.26154 -5.33201,1.12254 0.70157,-3.78855 -3.78855,1.12253 -0.0467,-3.83532 -4.30305,0.28064 0.46773,-3.60146 -3.32084,1.26285 z"
       id="path987"
       inkscape:connector-curvature="0"
       inkscape:export-xdpi="96"
       inkscape:export-ydpi="96" />
    <rect
       style="fill:#008000;fill-opacity:0.98543689;stroke:none;stroke-width:1;stroke-linecap:round;stroke-linejoin:round;stroke-miterlimit:4;stroke-dasharray:none;stroke-dashoffset:0;stroke-opacity:1;paint-order:stroke fill markers"
       id="rect1395"
       width="295.27499"
       height="62.441666"
       x="306.91666"
       y="332.98334"
       ry="21.166666"
       inkscape:export-xdpi="95.691048"
       inkscape:export-ydpi="95.691048" />
    <text
       xml:space="preserve"
       style="font-style:normal;font-weight:normal;font-size:15.50862789px;line-height:1.25;font-family:sans-serif;text-align:center;letter-spacing:0px;word-spacing:0px;text-anchor:middle;fill:#000000;fill-opacity:1;stroke:none;stroke-width:0.3877157"
       x="453.3804"
       y="383.022"
       id="text1399"
       inkscape:export-xdpi="95.691048"
       inkscape:export-ydpi="95.691048"><tspan
         sodipodi:role="line"
         id="tspan1397"
         x="453.3804"
         y="383.022"
         style="font-style:normal;font-variant:normal;font-weight:normal;font-stretch:normal;font-size:51.69543076px;font-family:Hack;-inkscape-font-specification:Hack;text-align:center;text-anchor:middle;stroke-width:0.3877157">START</tspan></text>
    <rect
       ry="21.166666"
       y="433.63705"
       x="304.29742"
       height="62.441666"
       width="295.27499"
       id="rect5105"
       style="fill:#008000;fill-opacity:0.98543689;stroke:none;stroke-width:1;stroke-linecap:round;stroke-linejoin:round;stroke-miterlimit:4;stroke-dasharray:none;stroke-dashoffset:0;stroke-opacity:1;paint-order:stroke fill markers"
       inkscape:export-xdpi="95.691048"
       inkscape:export-ydpi="95.691048" />
    <text
       id="text5109"
       y="479.62439"
       x="451.0397"
       style="font-style:normal;font-weight:normal;font-size:15.50862789px;line-height:1.25;font-family:sans-serif;text-align:center;letter-spacing:0px;word-spacing:0px;text-anchor:middle;fill:#000000;fill-opacity:1;stroke:none;stroke-width:0.3877157"
       xml:space="preserve"
       inkscape:export-xdpi="95.691048"
       inkscape:export-ydpi="95.691048"><tspan
         style="font-style:normal;font-variant:normal;font-weight:normal;font-stretch:normal;font-size:51.69543076px;font-family:Hack;-inkscape-font-specification:Hack;text-align:center;text-anchor:middle;stroke-width:0.3877157"
         y="479.62439"
         x="451.0397"
         id="tspan5107"
         sodipodi:role="line">QUIT</tspan></text>
  </g>
</svg>
